<?xml version="1.0" encoding="UTF-8" standalone="no"?>
<!DOCTYPE svg PUBLIC "-//W3C//DTD SVG 1.1//EN" "http://www.w3.org/Graphics/SVG/1.1/DTD/svg11.dtd">
<svg width="100%" height="100%" viewBox="0 0 503 201" version="1.1" xmlns="http://www.w3.org/2000/svg" xmlns:xlink="http://www.w3.org/1999/xlink" xml:space="preserve" xmlns:serif="http://www.serif.com/" style="fill-rule:evenodd;clip-rule:evenodd;stroke-linecap:round;stroke-linejoin:round;stroke-miterlimit:1.5;">
    <g transform="matrix(1,0,0,1,-1089,-1)">
        <g id="Banner-transparent" serif:id="Banner transparent" transform="matrix(1.00443,0,0,0.998252,1089.02,1.38938)">
            <rect x="0" y="0" width="500" height="200" style="fill:none;"/>
            <g transform="matrix(0.642892,0,0,0.64687,71.1146,2.99007)">
                <g>
                    <text x="218.09px" y="124.818px" style="font-family:'Inter-Bold', 'Inter';font-weight:700;font-size:104.048px;fill:white;">Jundao</text>
                    <path d="M254.964,46.051C253.253,46.051 251.867,47.438 251.867,49.148L251.867,101.899C251.85,105.106 251.218,107.486 249.59,108.811C248.617,109.603 247.319,109.934 245.764,109.934C243.899,109.934 242.331,109.439 241.251,108.355C240.134,107.235 239.588,105.559 239.549,103.479C239.518,101.791 238.141,100.439 236.453,100.439L220.528,100.439C218.823,100.439 217.439,101.816 217.431,103.521C217.397,110.409 219.408,115.835 222.757,119.891C227.708,125.89 235.71,128.95 244.951,128.95C253.489,128.95 260.641,126.29 265.692,121.666C270.825,116.967 273.854,110.218 273.875,101.918L273.875,49.148C273.875,47.438 272.488,46.051 270.778,46.051L254.964,46.051ZM254.964,49.148L254.964,101.91C254.927,109.189 251.675,113.031 245.764,113.031C240.185,113.031 236.564,109.558 236.453,103.536L220.528,103.536C220.454,118.648 231.243,125.852 244.951,125.852C260.284,125.852 270.741,116.578 270.778,101.91L270.778,49.148L254.964,49.148Z"/>
                    <path d="M317.598,123.491L317.598,124.818C317.598,126.528 318.985,127.915 320.695,127.915L335.807,127.915C337.518,127.915 338.904,126.528 338.904,124.818L338.904,68.066C338.904,66.355 337.518,64.968 335.807,64.968L320.067,64.968C318.357,64.968 316.97,66.355 316.97,68.066L316.97,100.669C316.997,106.176 313.331,109.158 309.242,109.158C307.234,109.158 305.556,108.517 304.402,107.249C303.146,105.866 302.525,103.839 302.511,101.381C302.511,101.381 302.511,68.066 302.511,68.066C302.511,66.355 301.124,64.968 299.413,64.968L283.673,64.968C281.963,64.968 280.576,66.355 280.576,68.066L280.576,104.209C280.597,111.738 282.901,117.767 286.728,121.945C290.661,126.238 296.229,128.654 302.886,128.654C308.936,128.654 313.933,126.734 317.598,123.491ZM319.543,115.816C319.747,115.39 319.933,114.955 320.104,114.509L320.695,114.509L320.695,124.818L335.807,124.818L335.807,68.066L320.067,68.066L320.067,100.654C320.104,108.265 314.895,112.256 309.242,112.256C303.293,112.256 299.45,108.08 299.413,101.393L299.413,68.066L283.673,68.066L283.673,104.201C283.71,117.465 291.469,125.557 302.886,125.557C310.656,125.557 316.435,121.913 319.332,116.243L319.799,116.71C319.717,116.449 319.628,116.144 319.543,115.816Z"/>
                    <path d="M366.469,69.258L366.469,68.066C366.469,66.355 365.082,64.968 363.372,64.968L348.371,64.968C346.66,64.968 345.273,66.355 345.273,68.066L345.273,124.818C345.273,126.528 346.66,127.915 348.371,127.915L364.11,127.915C365.821,127.915 367.208,126.528 367.208,124.818L367.208,92.018C367.222,89.284 367.949,87.083 369.361,85.598C370.697,84.194 372.616,83.503 374.862,83.503C377.033,83.503 378.808,84.124 380.001,85.431C381.282,86.835 381.866,88.913 381.852,91.474L381.852,124.818C381.852,126.528 383.239,127.915 384.949,127.915L400.689,127.915C402.4,127.915 403.786,126.528 403.786,124.818L403.786,88.683C403.786,81.165 401.488,75.128 397.603,70.938C393.633,66.657 387.973,64.229 381.107,64.229C375.093,64.229 370.118,66.069 366.469,69.258ZM364.11,92.008C364.147,84.692 368.507,80.406 374.862,80.406C381.181,80.406 384.986,84.544 384.949,91.491L384.949,124.818L400.689,124.818L400.689,88.683C400.689,75.455 392.93,67.327 381.107,67.327C372.682,67.327 366.586,71.465 364.037,78.078L363.372,78.078L363.372,68.066L348.371,68.066L348.371,124.818L364.11,124.818L364.11,92.008Z"/>
                    <path d="M447.473,68.882C444.372,66.205 440.022,64.229 433.943,64.229C420.033,64.229 407.864,74.721 407.864,96.516C407.864,117.729 419.535,128.839 433.98,128.839C440.065,128.839 444.493,126.846 447.658,124.109L447.658,124.818C447.658,126.528 449.044,127.915 450.755,127.915L466.273,127.915C467.984,127.915 469.37,126.528 469.37,124.818L469.37,49.148C469.37,47.438 467.984,46.051 466.273,46.051L450.57,46.051C448.86,46.051 447.473,47.438 447.473,49.148L447.473,68.882ZM433.98,125.742C443.144,125.742 447.91,120.458 450.09,115.729L450.755,115.729L450.755,124.818L466.273,124.818L466.273,49.148L450.57,49.148L450.57,77.598L450.09,77.598C447.984,72.98 443.439,67.327 433.943,67.327C421.492,67.327 410.962,77.007 410.962,96.516C410.962,115.507 421.049,125.742 433.98,125.742ZM438.968,113.216C431.246,113.216 427.034,106.344 427.034,96.442C427.034,86.614 431.172,79.852 438.968,79.852C446.617,79.852 450.903,86.318 450.903,96.442C450.903,106.565 446.543,113.216 438.968,113.216ZM438.968,110.119C432.86,110.119 430.131,104.274 430.131,96.442C430.131,88.685 432.816,82.949 438.968,82.949C445.005,82.949 447.805,88.452 447.805,96.442C447.805,104.449 444.96,110.119 438.968,110.119Z"/>
                    <path d="M510.854,88.548L508.475,86.17C508.475,84.859 508.139,83.787 507.33,83.079C506.373,82.242 504.934,81.915 503.148,81.915C499.244,81.915 496.781,83.602 496.041,86.204C495.636,87.626 494.284,88.564 492.811,88.444L478.253,87.262C477.366,87.19 476.554,86.74 476.022,86.027C475.49,85.314 475.29,84.407 475.473,83.536C477.937,71.845 487.857,64.229 503.222,64.229C517.645,64.229 530.41,71.105 530.41,86.54L530.41,124.818C530.41,126.528 529.023,127.915 527.312,127.915L512.385,127.915C510.675,127.915 509.288,126.528 509.288,124.818L509.288,124.8C505.839,127.401 501.23,128.987 495.352,128.987C487.818,128.987 481.517,126.46 477.633,121.745C474.99,118.537 473.411,114.287 473.411,108.967C473.411,94.396 484.62,89.599 497.533,88.407C502.164,87.956 505.396,87.655 507.465,87C508.01,86.827 508.475,86.844 508.475,86.399L508.475,86.176L510.853,88.549C509.331,90.312 505.294,90.764 497.828,91.491C486.596,92.525 476.509,96.294 476.509,108.967C476.509,120.199 484.526,125.889 495.352,125.889C502.83,125.889 507.959,122.982 510.946,118.606L511.76,119.42C511.654,119.031 511.518,118.492 511.402,117.901C511.592,117.59 511.772,117.272 511.942,116.948L512.385,116.948L512.385,124.818L527.312,124.818L527.312,86.54C527.312,73.017 515.858,67.327 503.222,67.327C489.625,67.327 480.684,73.829 478.504,84.175L493.061,85.357C494.133,81.589 497.495,78.817 503.148,78.817C508.506,78.817 511.572,81.515 511.572,86.17L511.572,86.392C511.572,87.281 511.343,87.982 510.854,88.548ZM499.86,115.027C495.02,115.027 491.547,112.773 491.547,108.45C491.547,104.016 495.204,101.836 500.747,101.06C504.183,100.58 509.799,99.767 511.683,98.511L511.683,104.533C511.683,110.482 506.769,115.027 499.86,115.027ZM499.86,111.929C496.997,111.929 494.644,111.007 494.644,108.45C494.644,107.038 495.396,106.09 496.591,105.442C497.81,104.781 499.375,104.38 501.176,104.128C503.284,103.833 506.111,103.373 508.586,102.786C508.586,102.786 508.586,104.533 508.586,104.533C508.586,108.838 504.859,111.929 499.86,111.929Z"/>
                    <path d="M565.185,129.024C574.757,129.024 582.492,125.676 587.863,119.972C593.185,114.319 596.215,106.289 596.215,96.663C596.215,86.98 593.184,78.933 587.864,73.278C582.493,67.567 574.757,64.229 565.185,64.229C555.613,64.229 547.877,67.567 542.506,73.278C537.186,78.933 534.155,86.98 534.155,96.663C534.155,106.289 537.185,114.319 542.507,119.972C547.878,125.676 555.614,129.024 565.185,129.024ZM565.185,125.926C582.403,125.926 593.118,114.14 593.118,96.663C593.118,79.076 582.403,67.327 565.185,67.327C547.967,67.327 537.252,79.076 537.252,96.663C537.252,114.14 547.967,125.926 565.185,125.926ZM565.259,113.733C557.315,113.733 553.251,106.455 553.251,96.553C553.251,86.65 557.315,79.335 565.259,79.335C573.055,79.335 577.119,86.65 577.119,96.553C577.119,106.455 573.055,113.733 565.259,113.733ZM565.259,110.636C558.943,110.636 556.348,104.426 556.348,96.553C556.348,88.676 558.94,82.432 565.259,82.432C571.456,82.432 574.022,88.682 574.022,96.553C574.022,104.42 571.453,110.636 565.259,110.636Z"/>
                    <text x="314.6px" y="228.865px" style="font-family:'Inter-Bold', 'Inter';font-weight:700;font-size:104.048px;fill:white;">Design</text>
                    <path d="M348.001,231.963C360.484,231.963 370.471,228.005 377.373,220.943C384.25,213.906 388.12,203.715 388.12,190.957C388.12,178.234 384.25,168.081 377.4,161.072C370.525,154.036 360.592,150.098 348.222,150.098C348.222,150.098 321.176,150.098 321.176,150.098C319.466,150.098 318.079,151.485 318.079,153.196L318.079,228.865C318.079,230.576 319.466,231.963 321.176,231.963L348.001,231.963ZM348.001,228.865C371.056,228.865 385.023,214.603 385.023,190.957C385.023,167.384 371.056,153.196 348.222,153.196L321.176,153.196L321.176,228.865L348.001,228.865ZM337.175,215.158L337.175,166.903L347.373,166.903C361.561,166.903 369.061,174.145 369.061,190.957C369.061,207.842 361.561,215.158 347.336,215.158L337.175,215.158ZM340.272,212.06L340.272,170.001C340.272,170.001 347.373,170.001 347.373,170.001C353.448,170.001 358.148,171.388 361.272,174.738C364.49,178.188 365.964,183.544 365.964,190.957C365.964,198.411 364.487,203.805 361.262,207.283C358.133,210.657 353.426,212.06 347.336,212.06L340.272,212.06Z"/>
                    <path d="M413.198,207.614L448.464,207.614C450.174,207.614 451.561,206.227 451.561,204.517L451.561,200.194C451.561,189.556 448.229,181.649 442.941,176.361C437.587,171.007 430.164,168.277 421.787,168.277C403.27,168.277 391.164,181.33 391.164,200.748C391.164,210.662 394.201,218.68 399.55,224.253C404.938,229.867 412.716,233.071 422.415,233.071C438.216,233.071 448.667,225.096 451.162,213.246C451.347,212.368 451.142,211.452 450.599,210.737C450.057,210.022 449.231,209.577 448.335,209.518L433.778,208.557C432.407,208.467 431.14,209.29 430.667,210.579C429.519,213.702 426.464,215.127 422.674,215.127C419.696,215.127 417.233,214.22 415.545,212.434C414.369,211.191 413.585,209.558 413.198,207.614ZM422.415,229.974C436.456,229.974 445.914,223.138 448.131,212.608L433.574,211.648C431.985,215.971 427.921,218.224 422.674,218.224C414.804,218.224 409.816,213.015 409.816,204.554L409.816,204.517L448.464,204.517L448.464,200.194C448.464,180.907 436.788,171.374 421.787,171.374C405.087,171.374 394.261,183.234 394.261,200.748C394.261,218.742 404.939,229.974 422.415,229.974ZM409.816,194.762C410.149,188.296 415.063,183.124 422.046,183.124C428.881,183.124 433.611,188.001 433.648,194.762L409.816,194.762ZM413.646,191.665C414.998,188.463 418.073,186.221 422.046,186.221C425.937,186.221 428.89,188.381 430.034,191.665C430.033,191.665 413.647,191.665 413.647,191.665L413.646,191.665Z"/>
                    <path d="M506.146,191.388C507.005,191.335 507.803,190.927 508.349,190.263C508.895,189.598 509.14,188.737 509.026,187.884C507.429,175.99 498.1,168.277 481.792,168.277C465.163,168.277 454.605,176.513 454.641,189.036C454.604,198.97 460.575,205.7 473.536,208.293L483.362,210.25C484.933,210.567 486.174,210.954 487.087,211.488C487.708,211.851 488.103,212.269 488.15,212.866C488.099,213.517 487.632,214 487.012,214.393C485.806,215.157 484.074,215.534 482.014,215.534C478.148,215.534 475.399,214.159 474.737,210.98C474.426,209.483 473.069,208.438 471.543,208.518L456.061,209.331C455.197,209.376 454.39,209.781 453.838,210.448C453.286,211.115 453.038,211.983 453.155,212.841C454.825,225.115 464.985,233.071 481.977,233.071C498.708,233.071 510.304,224.026 510.346,211.288C510.346,211.28 510.346,211.272 510.346,211.264C510.303,201.647 504.375,195.516 491.465,192.873L481.21,190.807C479.527,190.442 478.254,190.028 477.349,189.48C476.775,189.132 476.457,188.744 476.465,188.19C476.465,188.165 476.465,188.14 476.465,188.115C476.458,187.488 476.931,187.053 477.509,186.692C478.655,185.975 480.265,185.63 482.051,185.63C485.686,185.63 488.001,187.394 488.516,189.826C488.835,191.327 490.205,192.369 491.737,192.274L506.146,191.388ZM505.956,188.296C504.552,177.84 496.128,171.374 481.792,171.374C467.271,171.374 457.702,178.099 457.739,189.035C457.702,197.533 463.059,203.039 474.144,205.256L483.972,207.214C488.923,208.211 491.177,210.022 491.251,212.867C491.177,216.229 487.519,218.631 482.014,218.631C476.398,218.631 472.666,216.229 471.705,211.611L456.224,212.423C457.702,223.286 466.939,229.974 481.977,229.974C496.682,229.974 507.212,222.473 507.249,211.278C507.212,203.076 501.855,198.162 490.844,195.908L480.573,193.839C475.289,192.693 473.331,190.883 473.368,188.149C473.331,184.749 477.173,182.532 482.051,182.532C487.519,182.532 490.77,185.525 491.546,189.183L505.956,188.296Z"/>
                    <path d="M514.092,228.865C514.092,230.576 515.479,231.963 517.189,231.963L532.929,231.963C534.64,231.963 536.026,230.576 536.026,228.865L536.026,172.113C536.026,170.403 534.64,169.016 532.929,169.016L517.189,169.016C515.479,169.016 514.092,170.403 514.092,172.113L514.092,228.865ZM517.189,228.865L532.929,228.865L532.929,172.113L517.189,172.113L517.189,228.865ZM525.096,167.895C531.547,167.895 536.728,162.861 536.728,156.817C536.728,150.82 531.55,145.775 525.096,145.775C518.688,145.775 513.501,150.816 513.501,156.817C513.501,162.865 518.692,167.895 525.096,167.895ZM525.096,164.797C529.788,164.797 533.631,161.213 533.631,156.817C533.631,152.457 529.788,148.873 525.096,148.873C520.441,148.873 516.598,152.457 516.598,156.817C516.598,161.213 520.441,164.797 525.096,164.797Z"/>
                    <path d="M580.156,226.852L580.156,229.198C580.156,231.452 579.672,233.183 578.663,234.415C577.107,236.316 574.479,236.927 571.429,236.927C566.296,236.927 563.534,235.006 562.579,232.467C562.07,231.116 560.697,230.296 559.267,230.488L544.709,232.446C543.856,232.561 543.089,233.026 542.592,233.73C542.095,234.433 541.914,235.312 542.092,236.155C544.216,246.236 553.814,254.427 571.06,254.427C589.277,254.427 601.905,245.728 601.905,229.42L601.905,172.113C601.905,170.403 600.519,169.016 598.808,169.016L583.179,169.016C581.468,169.016 580.082,170.403 580.082,172.113L580.082,173.056C576.952,170.316 572.538,168.277 566.368,168.277C552.451,168.277 540.289,178.781 540.289,200.378C540.289,210.779 543.233,218.36 547.813,223.383C552.558,228.587 559.107,231.15 566.405,231.15C572.439,231.15 576.94,229.385 580.156,226.852ZM581.869,220.224C582.141,219.759 582.379,219.288 582.588,218.816L583.253,218.816L583.253,229.198C583.253,236.994 578.265,240.024 571.429,240.024C564.483,240.024 560.973,236.994 559.68,233.558L545.122,235.516C547.007,244.458 555.763,251.33 571.06,251.33C587.28,251.33 598.808,243.94 598.808,229.42L598.808,172.113L583.179,172.113L583.179,181.646L582.588,181.646C580.482,177.027 575.863,171.374 566.368,171.374C553.916,171.374 543.386,181.055 543.386,200.378C543.386,219.259 553.62,228.053 566.405,228.053C574.419,228.053 579.306,224.49 581.755,220.415L582.058,220.718C581.996,220.563 581.932,220.397 581.869,220.224ZM571.393,216.229C563.67,216.229 559.458,210.096 559.458,200.304C559.458,190.661 563.596,183.9 571.393,183.9C579.041,183.9 583.327,190.365 583.327,200.304C583.327,210.317 578.967,216.229 571.393,216.229ZM571.393,213.132C565.348,213.132 562.556,207.969 562.556,200.304C562.556,192.711 565.254,186.997 571.393,186.997C577.415,186.997 580.23,192.478 580.23,200.304C580.23,208.142 577.321,213.132 571.393,213.132Z"/>
                    <path d="M629.47,173.305L629.47,172.113C629.47,170.403 628.083,169.016 626.372,169.016L611.371,169.016C609.661,169.016 608.274,170.403 608.274,172.113L608.274,228.865C608.274,230.576 609.661,231.963 611.371,231.963L627.111,231.963C628.822,231.963 630.209,230.576 630.209,228.865L630.209,196.066C630.223,193.331 630.95,191.131 632.362,189.646C633.698,188.242 635.617,187.551 637.863,187.551C640.034,187.551 641.809,188.171 643.002,189.479C644.283,190.882 644.867,192.961 644.853,195.522L644.853,228.865C644.853,230.576 646.24,231.963 647.95,231.963L663.69,231.963C665.401,231.963 666.787,230.576 666.787,228.865L666.787,192.73C666.787,185.212 664.489,179.175 660.604,174.986C656.634,170.705 650.974,168.277 644.107,168.277C638.094,168.277 633.119,170.116 629.47,173.305ZM627.111,196.055C627.148,188.74 631.508,184.454 637.863,184.454C644.181,184.454 647.987,188.592 647.95,195.538L647.95,228.865L663.69,228.865L663.69,192.73C663.69,179.503 655.931,171.374 644.107,171.374C635.683,171.374 629.587,175.512 627.037,182.126L626.372,182.126L626.372,172.113L611.371,172.113L611.371,228.865L627.111,228.865L627.111,196.055Z"/>
                </g>
            </g>
            <g id="v2.svg" transform="matrix(0.134432,0,0,0.135264,72.9965,100.151)">
                <g transform="matrix(1,0,0,1,-543,-543)">
                    <g transform="matrix(4.69247,0,0,4.15935,-2881.05,-536.913)">
                        <g>
                            <g>
                                <g transform="matrix(0.213108,0,0,0.240422,-5631.1,-4007.35)">
                                    <path d="M30389.8,17310.8C30389.8,17252.7 30342.6,17205.6 30284.5,17205.6L29410.2,17205.6C29352.1,17205.6 29305,17252.7 29305,17310.8L29305,18185.1C29305,18243.2 29352.1,18290.4 29410.2,18290.4L30284.5,18290.4C30342.6,18290.4 30389.8,18243.2 30389.8,18185.1L30389.8,17310.8Z" style="fill:rgb(0,108,255);"/>
                                </g>
                                <g transform="matrix(0.213108,0,0,0.240422,407.818,73.3014)">
                                    <g>
                                        <g transform="matrix(1,0,0,1,-1181.15,-77.1774)">
                                            <path d="M2603.44,739.043L2603.44,1164.9C2603.44,1213.3 2642.73,1252.59 2691.13,1252.59C2739.53,1252.59 2778.82,1213.3 2778.82,1164.9L2778.82,1036.42" style="fill:none;stroke:white;stroke-width:50px;"/>
                                        </g>
                                        <g transform="matrix(1,0,0,1,-1181.15,-77.1774)">
                                            <path d="M2778.82,817.893L2778.82,539.684C2778.82,491.287 2739.53,451.994 2691.13,451.994C2642.73,451.994 2603.44,491.287 2603.44,539.684L2603.44,638.671" style="fill:none;stroke:white;stroke-width:50px;"/>
                                        </g>
                                    </g>
                                    <g transform="matrix(1,0,0,1,-1181.15,-77.1774)">
                                        <path d="M2778.82,958.085L2778.82,926.006" style="fill:none;stroke:white;stroke-width:50px;"/>
                                    </g>
                                </g>
                            </g>
                        </g>
                    </g>
                </g>
            </g>
        </g>
    </g>
</svg>
